<?xml version="1.0" encoding="utf-8"?>
<!-- Generator: Adobe Illustrator 18.1.1, SVG Export Plug-In . SVG Version: 6.00 Build 0)  -->
<svg version="1.1" id="Layer_1" xmlns="http://www.w3.org/2000/svg" xmlns:xlink="http://www.w3.org/1999/xlink" x="0px" y="0px"
	 viewBox="0 0 600 350" enable-background="new 0 0 600 350" xml:space="preserve">
<path fill="#FAF8DA" stroke="#FAF8DA" stroke-width="0.4935" stroke-miterlimit="10" d="M607.3-31.9v409.4c0,1.4-0.8,2.5-1.8,2.5
	H-3.2c-1,0-1.8-1.1-1.8-2.5v-408"/>
<g>
	<path fill="none" d="M270.6,258.4C270.6,258.4,270.6,258.4,270.6,258.4C270.6,258.4,270.6,258.4,270.6,258.4
		C270.6,258.4,270.6,258.4,270.6,258.4z"/>
	<path fill="none" d="M274.7,271.5c-0.2-0.1-0.4-0.1-0.6-0.2c0,0,0,0,0,0C274.3,271.4,274.5,271.5,274.7,271.5z"/>
	<path fill="none" d="M261.5,260.2L261.5,260.2c0.2,0.4,0.4,0.9,0.6,1.3h0C261.9,261.1,261.7,260.7,261.5,260.2z"/>
	<path d="M262.1,261.6c0.2,0.4,0.5,0.8,0.6,1.1C262.5,262.3,262.3,261.9,262.1,261.6L262.1,261.6z"/>
	<path d="M262.9,262.9L262.9,262.9c0-0.1-0.1-0.1-0.1-0.2C262.8,262.8,262.9,262.9,262.9,262.9z"/>
	<path d="M273.7,271.3c-0.5-0.2-1-0.3-1.5-0.5c0,0,0,0,0,0C272.3,270.8,272.9,271,273.7,271.3z"/>
	<path d="M274.1,271.4C274.1,271.4,274.1,271.4,274.1,271.4c-0.1,0-0.2,0-0.2-0.1C273.9,271.3,274,271.3,274.1,271.4z"/>
	<g>
		<path fill="#6B6C24" d="M213.2,250.9h-9.7c-0.8,0-1.7,0.1-2.5,0.2c-0.2,0-0.3,0.1-0.5,0.1c3,1.7,5.4,4.2,7,7.3h0.8h5.3
			c4.7,0,8.5,3.8,8.5,8.5c0,4.7-3.8,8.5-8.5,8.5h-6.1h-1.3h-1.2h0h-2c-2.1,0-4.1-0.8-5.5-2.1l0,0c0,0,0,0,0,0
			c-0.3-0.3-0.6-0.5-0.8-0.7c-0.4-0.5-0.6-0.8-0.6-0.8c0,0,0,0,0,0c0,0,0,0,0,0c-1-1.4-1.5-3.1-1.5-4.9c0-1.8,0.5-3.4,1.4-4.7
			c0,0,0.1-0.1,0.1-0.1c-1.1-0.9-2.5-1.5-4.1-1.5h-3.2c-0.8,2-1.3,4.1-1.3,6.4c0,2.3,0.5,4.4,1.3,6.4c0.2,0.4,0.3,0.7,0.5,1.1
			c0.2,0.3,0.3,0.6,0.5,0.9c0,0,0,0,0,0.1c0,0.1,0.1,0.1,0.1,0.1c1.8,2.9,4.4,5.1,7.6,6.4c0.4,0.2,0.8,0.3,1.2,0.4c0,0,0,0,0.1,0
			c0.1,0,0.1,0,0.2,0.1c0.2,0.1,0.3,0.1,0.5,0.1c0,0,0,0,0,0c1.3,0.3,2.6,0.5,4,0.5h9.7c8.9,0,16-7.2,16-16
			C229.3,258.1,222.1,250.9,213.2,250.9z"/>
		<path fill="#6B6C24" d="M181.9,283h9.7c0.8,0,1.7-0.1,2.5-0.2c0.2,0,0.3-0.1,0.5-0.1c-3-1.7-5.4-4.2-7-7.3h-0.8h-5.3
			c-4.7,0-8.5-3.8-8.5-8.5c0-4.7,3.8-8.5,8.5-8.5h6.1h1.3h1.2h0h2c2.1,0,4,0.8,5.5,2.1l0,0c0,0,0,0,0,0c0.3,0.3,0.6,0.5,0.8,0.7
			c0.4,0.5,0.6,0.8,0.6,0.8c0,0,0,0,0,0c0,0,0,0,0,0c1,1.4,1.5,3.1,1.5,4.9c0,1.8-0.5,3.4-1.4,4.7c0,0-0.1,0.1-0.1,0.1
			c1.1,0.9,2.5,1.5,4.1,1.5h3.2c0.8-2,1.3-4.1,1.3-6.4c0-2.3-0.5-4.4-1.3-6.4c-0.2-0.4-0.3-0.7-0.5-1.1c-0.2-0.3-0.3-0.6-0.5-0.9
			c0,0,0,0,0-0.1c0,0-0.1-0.1-0.1-0.1c-1.8-2.9-4.5-5.1-7.6-6.4c-0.4-0.2-0.8-0.3-1.2-0.4c0,0,0,0-0.1,0c-0.1,0-0.1,0-0.2-0.1
			c-0.2-0.1-0.3-0.1-0.5-0.1c0,0,0,0,0,0c-1.3-0.3-2.6-0.5-4-0.5h-9.7c-8.9,0-16,7.2-16,16C165.9,275.8,173,283,181.9,283z"/>
	</g>
	<path d="M274.7,271.5C274.7,271.5,274.7,271.5,274.7,271.5C274.7,271.5,274.7,271.5,274.7,271.5z"/>
	<path d="M273.7,271.3C273.8,271.3,273.8,271.3,273.7,271.3C273.8,271.3,273.8,271.3,273.7,271.3z"/>
	<path d="M270.6,258.4c0,0,0.2,0.4,0.8,1c0,0,0,0,0,0C271.1,259.1,270.8,258.7,270.6,258.4C270.6,258.4,270.6,258.4,270.6,258.4z"/>
	<path d="M262.8,262.7C262.7,262.6,262.7,262.6,262.8,262.7C262.7,262.6,262.7,262.6,262.8,262.7z"/>
	<path d="M271.4,259.4C271.4,259.4,271.4,259.4,271.4,259.4c0.2,0.3,0.5,0.6,0.9,0.9c0,0,0,0,0,0C272,260,271.7,259.7,271.4,259.4z"
		/>
	<path d="M272.3,260.3C272.3,260.3,272.3,260.3,272.3,260.3C272.3,260.3,272.3,260.3,272.3,260.3
		C272.3,260.3,272.3,260.3,272.3,260.3z"/>
	<rect x="272.3" y="260.3" width="0" height="0"/>
	<g>
		<path fill="#FF5774" stroke="#FF5774" stroke-width="1.1504" stroke-miterlimit="10" d="M196.7,88.5c4.1,0.7,6.9,4.7,6.1,8.8
			c-0.2,1.2-0.7,2.2-1.3,3.1c0,0,0.4,1.1,2.4,1.4c0.8,0.1,2.4,0.5,2.4,0.5c0.8-1.3,1.3-2.7,1.6-4.2c1.2-6.7-3.2-13-9.9-14.2l-16.6-3
			l0,0c-6.7-1.2-13,3.2-14.2,9.9c-1.2,6.7,3.2,13,9.9,14.2l15.3,2.8c0,0-1.2-1.1-2.1-2.4c-1-1.5-1.4-2.8-1.4-2.8l-10.3-1.9
			c-4.1-0.7-6.9-4.7-6.1-8.8c0.7-4.1,4.7-6.9,8.8-6.1L196.7,88.5z"/>
		<path fill="#FF5774" stroke="#FF5774" stroke-width="1.1504" stroke-miterlimit="10" d="M202.7,104.7c-4.1-0.7-6.9-4.7-6.1-8.8
			c0.2-1.2,0.7-2.2,1.3-3.1c0,0-0.4-1.1-2.4-1.4c-0.8-0.1-2.4-0.5-2.4-0.5c-0.8,1.3-1.3,2.7-1.6,4.2c-1.2,6.7,3.2,13,9.9,14.2
			L202.7,104.7z"/>
		<path fill="#FF5774" stroke="#FF5774" stroke-width="1.1504" stroke-miterlimit="10" d="M226.4,91.7c0.2,3.3-0.5,6.9-9,9.8
			l1.7,4.9c10.7-3.7,12.8-9,12.7-13.2c0-0.5-0.1-2-0.1-2c-0.8-6.7-6.8-11.6-13.5-10.8l-15.5,1.7c0,0,1.5,0.7,2.7,1.7
			c1.4,1.1,2.2,2.3,2.2,2.3L218,85C222.1,84.6,225.9,87.6,226.4,91.7z"/>
	</g>
	<g>
		<path fill="#C9C9C9" d="M563.1,203.5c0,0.7-0.4,1.3-0.9,1.3H458c-0.5,0-0.9-0.6-0.9-1.3v-8.4c0-0.7,0.4-1.3,0.9-1.3h104.1
			c0.5,0,0.9,0.6,0.9,1.3V203.5z"/>
		<g>
			<circle fill="#9D9E9D" cx="460.5" cy="196.9" r="1.4"/>
			<circle fill="#9D9E9D" cx="464.5" cy="196.9" r="1.4"/>
			<circle fill="#9D9E9D" cx="468.5" cy="196.9" r="1.4"/>
		</g>
	</g>
	<path fill="#82CACD" stroke="#FAF8DA" stroke-width="0.1122" stroke-miterlimit="10" d="M563.1,199.7V322c0,0.4-0.1,0.8-0.3,0.8
		H457.4c-0.2,0-0.3-0.3-0.3-0.8V200.1"/>
	<path fill="#FFC122" d="M560.1,323.6h-100c-1.6,0-3-1.3-3-3v-2.1c0-1.6,1.4-3,3-3h100c1.7,0,3,1.4,3,3v2.1
		C563.1,322.2,561.7,323.6,560.1,323.6z"/>
	<rect x="457.1" y="313.7" fill="#82CACD" width="106" height="4.1"/>
	<circle fill="#664D25" stroke="#664D25" stroke-width="2.2447" stroke-miterlimit="10" cx="492.6" cy="254" r="7.3"/>
	<circle fill="#FFA09E" stroke="#FFA09E" stroke-width="2.2447" stroke-miterlimit="10" cx="492.8" cy="275.1" r="7.4"/>
	<circle fill="#A2A242" stroke="#A2A242" stroke-width="2.2447" stroke-miterlimit="10" cx="492.8" cy="297.6" r="7.4"/>
	<rect x="472.4" y="206.3" fill="#205D76" width="75.4" height="2.4"/>
	<rect x="507.1" y="252.8" fill="#EA6E2F" width="24.7" height="2.4"/>
	<rect x="507.1" y="273.9" fill="#EA6E2F" width="24.7" height="2.4"/>
	<rect x="507.5" y="295" fill="#EA6E2F" width="24.7" height="2.4"/>
	<rect x="472.4" y="216.5" fill="#205D76" width="75.4" height="2.4"/>
	<rect x="472.8" y="226.5" fill="#205D76" width="75.4" height="2.4"/>
	<g>
		<path fill="#C9C9C9" d="M563.5,35c0,0.7-0.4,1.3-0.9,1.3H458.4c-0.5,0-0.9-0.6-0.9-1.3v-8.4c0-0.7,0.4-1.3,0.9-1.3h104.1
			c0.5,0,0.9,0.6,0.9,1.3V35z"/>
		<g>
			<circle fill="#9D9E9D" cx="460.9" cy="28.4" r="1.4"/>
			<circle fill="#9D9E9D" cx="465" cy="28.4" r="1.4"/>
			<circle fill="#9D9E9D" cx="469" cy="28.4" r="1.4"/>
		</g>
	</g>
	<path fill="#FFFFFF" stroke="#FFFFFF" stroke-width="0.1122" stroke-miterlimit="10" d="M563.5,31.2v122.3c0,0.4-0.1,0.8-0.3,0.8
		H457.8c-0.2,0-0.3-0.3-0.3-0.8V31.6"/>
	<rect x="457.5" y="145.2" fill="#FFFFFF" width="106" height="4.1"/>
	<rect x="463.9" y="37.9" width="75.4" height="2.4"/>
	<rect x="464.6" y="67.3" width="24.7" height="2.4"/>
	<rect x="464.6" y="74.5" width="24.7" height="2.4"/>
	<rect x="464.9" y="81.5" width="24.7" height="2.4"/>
	<rect x="463.8" y="48" width="75.4" height="2.4"/>
	<rect x="464.2" y="58" width="75.4" height="2.4"/>
	<g>
		<path fill="#C9C9C9" d="M142.5,35.1c0,0.7-0.4,1.3-0.9,1.3H37.4c-0.5,0-0.9-0.6-0.9-1.3v-8.4c0-0.7,0.4-1.3,0.9-1.3h104.1
			c0.5,0,0.9,0.6,0.9,1.3V35.1z"/>
		<g>
			<circle fill="#9D9E9D" cx="39.9" cy="28.5" r="1.4"/>
			<circle fill="#9D9E9D" cx="44" cy="28.5" r="1.4"/>
			<circle fill="#9D9E9D" cx="48" cy="28.5" r="1.4"/>
		</g>
	</g>
	<path fill="#333333" stroke="#333333" stroke-width="0.1122" stroke-miterlimit="10" d="M142.5,31.3v122.3c0,0.4-0.1,0.8-0.3,0.8
		H36.8c-0.2,0-0.3-0.3-0.3-0.8V31.7"/>
	<rect x="42.9" y="37.9" fill="#82CACD" width="75.4" height="2.4"/>
	<rect x="47.8" y="48.1" fill="#A2A242" width="75.4" height="2.4"/>
	<rect x="43.2" y="58.1" fill="#82CACD" width="75.4" height="2.4"/>
	<rect x="45.3" y="78.6" fill="#82CACD" width="75.4" height="2.4"/>
	<rect x="50.3" y="88.8" fill="#A2A242" width="75.4" height="2.4"/>
	<rect x="45.7" y="98.8" fill="#82CACD" width="75.4" height="2.4"/>
	<g>
		<path fill="#C9C9C9" d="M364.8,35c0,0.7-0.4,1.3-0.9,1.3H259.8c-0.5,0-0.9-0.6-0.9-1.3v-8.4c0-0.7,0.4-1.3,0.9-1.3h104.1
			c0.5,0,0.9,0.6,0.9,1.3V35z"/>
		<g>
			<circle fill="#9D9E9D" cx="262.2" cy="28.5" r="1.4"/>
			<circle fill="#9D9E9D" cx="266.3" cy="28.5" r="1.4"/>
			<circle fill="#9D9E9D" cx="270.3" cy="28.5" r="1.4"/>
		</g>
	</g>
	<path fill="#333333" stroke="#333333" stroke-width="0.1122" stroke-miterlimit="10" d="M364.8,31.2v122.3c0,0.4-0.1,0.8-0.3,0.8
		H259.1c-0.2,0-0.3-0.3-0.3-0.8V31.6"/>
	<rect x="265.2" y="37.9" fill="#FFFFFF" width="41.5" height="2.4"/>
	<rect x="267.9" y="48" fill="#FFA09E" width="41.5" height="2.4"/>
	<rect x="265.4" y="58" fill="#FFFFFF" width="41.5" height="2.4"/>
	<rect x="266.5" y="78.6" fill="#FFFFFF" width="41.5" height="2.4"/>
	<rect x="269.3" y="88.7" fill="#FFA09E" width="41.5" height="2.4"/>
	<rect x="266.8" y="98.7" fill="#FFFFFF" width="41.5" height="2.4"/>
	<rect x="60.8" y="128.7" fill="none" width="106" height="35"/>
	<text transform="matrix(1 0 0 1 60.8063 141.6145)" fill="#FFFFFF" font-family="'DroidSansMono'" font-size="17">.html</text>
	<rect x="289" y="126.9" fill="none" width="106" height="35"/>
	<text transform="matrix(1 0 0 1 288.9872 139.8033)" fill="#FFFFFF" font-family="'DroidSansMono'" font-size="17">.css</text>
	<g>
		<path fill="#EA6E2F" d="M400.8,87.9v-3.4h21v3.4H400.8z M400.8,97.3v-3.4h21v3.4H400.8z"/>
	</g>
	<g>
		<path fill="#C9C9C9" d="M143,204c0,0.7-0.4,1.3-0.9,1.3H38c-0.5,0-0.9-0.6-0.9-1.3v-8.4c0-0.7,0.4-1.3,0.9-1.3h104.1
			c0.5,0,0.9,0.6,0.9,1.3V204z"/>
		<g>
			<circle fill="#9D9E9D" cx="40.4" cy="197.5" r="1.4"/>
			<circle fill="#9D9E9D" cx="44.5" cy="197.5" r="1.4"/>
			<circle fill="#9D9E9D" cx="48.5" cy="197.5" r="1.4"/>
		</g>
	</g>
	<path fill="#333333" stroke="#333333" stroke-width="0.1122" stroke-miterlimit="10" d="M143,200.3v122.3c0,0.4-0.1,0.8-0.3,0.8
		H37.3c-0.2,0-0.3-0.3-0.3-0.8V200.7"/>
	<rect x="43.4" y="206.9" fill="#82CACD" width="75.4" height="2.4"/>
	<rect x="48.3" y="217.1" fill="#A2A242" width="75.4" height="2.4"/>
	<rect x="43.8" y="227.1" fill="#82CACD" width="75.4" height="2.4"/>
	<rect x="45.9" y="247.6" fill="#82CACD" width="75.4" height="2.4"/>
	<rect x="50.8" y="257.7" fill="#A2A242" width="75.4" height="2.4"/>
	<rect x="46.2" y="267.7" fill="#82CACD" width="75.4" height="2.4"/>
	<g>
		<path fill="#C9C9C9" d="M365.3,204c0,0.7-0.4,1.3-0.9,1.3H260.3c-0.5,0-0.9-0.6-0.9-1.3v-8.4c0-0.7,0.4-1.3,0.9-1.3h104.1
			c0.5,0,0.9,0.6,0.9,1.3V204z"/>
		<g>
			<circle fill="#9D9E9D" cx="262.8" cy="197.4" r="1.4"/>
			<circle fill="#9D9E9D" cx="266.8" cy="197.4" r="1.4"/>
			<circle fill="#9D9E9D" cx="270.8" cy="197.4" r="1.4"/>
		</g>
	</g>
	<path fill="#333333" stroke="#333333" stroke-width="0.1122" stroke-miterlimit="10" d="M365.3,200.2v122.3c0,0.4-0.1,0.8-0.3,0.8
		H259.6c-0.2,0-0.3-0.3-0.3-0.8V200.6"/>
	<rect x="265.7" y="206.9" fill="#FFFFFF" width="41.5" height="2.4"/>
	<rect x="268.4" y="217" fill="#FFA09E" width="41.5" height="2.4"/>
	<rect x="265.9" y="227" fill="#FFFFFF" width="41.5" height="2.4"/>
	<rect x="267.1" y="247.6" fill="#FFFFFF" width="41.5" height="2.4"/>
	<rect x="269.8" y="257.7" fill="#FFA09E" width="41.5" height="2.4"/>
	<rect x="267.3" y="267.7" fill="#FFFFFF" width="41.5" height="2.4"/>
	<rect x="61.3" y="297.7" fill="none" width="106" height="35"/>
	<text transform="matrix(1 0 0 1 61.3229 310.594)" fill="#FFFFFF" font-family="'DroidSansMono'" font-size="17">.html</text>
	<rect x="289.5" y="295.9" fill="none" width="106" height="35"/>
	<text transform="matrix(1 0 0 1 289.5038 308.7827)" fill="#FFFFFF" font-family="'DroidSansMono'" font-size="17">.css</text>
	<g>
		<path fill="#EA6E2F" d="M400.8,263.7v-3.4h21v3.4H400.8z M400.8,273.1v-3.4h21v3.4H400.8z"/>
	</g>
</g>
</svg>
